<svg xmlns="http://www.w3.org/2000/svg" viewBox="0 0 1024 1024">
  <rect x="82" y="82" width="860" height="860" rx="138" fill="#07070a" stroke="#9a0e18" stroke-width="32"/>
  <rect x="122" y="122" width="780" height="780" rx="105" fill="none" stroke="#ff2f36" stroke-opacity=".45" stroke-width="8"/>
  <path d="M512 218a294 294 0 0 1 289 242" fill="none" stroke="#ff2b34" stroke-width="42" stroke-linecap="round"/>
  <path d="M250 642a294 294 0 0 1 40-274" fill="none" stroke="#f2f2f6" stroke-width="22" stroke-linecap="round"/>
  <path d="M344 574V426a168 168 0 0 1 336 0v148" fill="none" stroke="#f2f2f6" stroke-width="48" stroke-linecap="round"/>
  <rect x="286" y="486" width="452" height="284" rx="58" fill="#121217" stroke="#ff2b34" stroke-width="30"/>
  <rect x="332" y="532" width="360" height="192" rx="34" fill="#1c1c22" stroke="#4b4b52" stroke-width="8"/>
  <path d="M512 628V394M512 628h138" stroke-linecap="round" fill="none" stroke-width="34"/>
  <path d="M512 628V394" stroke="#f2f2f6" stroke-linecap="round" stroke-width="34"/>
  <path d="M512 628h138" stroke="#ff2b34" stroke-linecap="round" stroke-width="34"/>
  <circle cx="512" cy="628" r="42" fill="#ff2b34" stroke="#f2f2f6" stroke-width="10"/>
  <path d="M746 274 290 822" stroke="#ff2b34" stroke-width="34" stroke-linecap="round"/>
</svg>
